<svg version="1.0" xmlns="http://www.w3.org/2000/svg"
 width="512.000000pt" height="512.000000pt" viewBox="0 0 512.000000 512.000000"
 preserveAspectRatio="xMidYMid meet">

<g transform="translate(0.000000,512.000000) scale(0.100000,-0.100000)"
fill="white" stroke="none">
<path d="M1937 4690 c-218 -37 -450 -175 -558 -332 -3 -5 -32 7 -65 27 -209
126 -478 95 -617 -71 -73 -86 -106 -214 -88 -333 6 -38 16 -82 22 -98 10 -26
7 -30 -43 -72 -268 -224 -442 -510 -519 -856 -21 -95 -22 -127 -26 -626 -5
-584 -5 -580 59 -619 19 -11 51 -20 73 -20 58 0 152 -27 204 -57 25 -14 73
-52 108 -85 139 -129 272 -187 448 -195 195 -9 345 47 500 187 102 92 163 125
263 142 136 23 255 -18 375 -130 143 -133 277 -191 453 -200 202 -9 359 52
519 202 112 105 245 150 376 128 91 -16 154 -48 236 -124 171 -155 333 -217
537 -205 165 9 296 67 433 189 39 36 99 79 132 97 l61 32 0 -421 c0 -330 -3
-428 -13 -453 -19 -44 -89 -105 -129 -112 -18 -3 -983 -4 -2144 -3 l-2110 3
-36 24 c-19 13 -46 40 -59 59 -23 34 -24 44 -29 241 -4 146 -9 213 -18 229
-19 32 -93 65 -129 56 -52 -13 -85 -35 -99 -69 -17 -42 -20 -341 -3 -431 31
-173 163 -314 334 -359 52 -13 306 -15 2175 -15 1869 0 2123 2 2175 15 172 45
306 192 334 365 12 70 16 1854 5 1946 -4 30 -15 63 -28 78 -15 19 -112 66
-341 165 -176 76 -747 324 -1270 551 -522 227 -955 414 -961 417 -7 3 -2 32
17 88 94 279 32 497 -171 600 -96 49 -251 67 -383 45z m264 -268 c99 -61 103
-194 9 -387 -54 -112 -134 -214 -225 -288 -64 -51 -224 -137 -257 -137 -17 0
-18 5 -13 58 17 146 -42 350 -142 490 -15 22 -14 24 59 96 130 126 306 199
459 193 56 -3 85 -9 110 -25z m-1050 -247 c122 -49 226 -156 280 -285 19 -46
23 -74 23 -171 1 -143 -3 -149 -88 -149 -261 1 -554 314 -496 531 14 51 33 76
75 96 41 19 129 10 206 -22z m2170 -865 c536 -232 981 -426 989 -431 9 -5
-834 -9 -1989 -9 l-2004 0 7 49 c27 207 204 508 387 661 l49 42 79 -75 c181
-173 384 -245 661 -234 148 6 252 27 378 78 141 56 229 115 347 235 61 61 113
109 116 108 3 -2 444 -193 980 -424z m1499 -1033 l0 -342 -72 -23 c-97 -30
-188 -86 -282 -171 -88 -80 -154 -115 -247 -131 -138 -24 -263 21 -398 144
-93 85 -201 145 -311 172 -99 25 -282 15 -376 -20 -101 -37 -150 -67 -238
-144 -43 -37 -97 -80 -119 -95 -94 -63 -249 -78 -362 -36 -74 27 -102 46 -187
125 -83 78 -187 136 -292 165 -68 18 -100 21 -201 17 -189 -7 -297 -53 -455
-194 -130 -116 -240 -156 -376 -134 -91 15 -161 50 -237 119 -107 97 -198 152
-309 187 l-58 18 0 343 0 343 2260 0 2260 0 0 -343z"/>
</g>
</svg>
