<svg version="1.0" xmlns="http://www.w3.org/2000/svg" width="512" height="512">

<g transform="translate(0.000000,512.000000) scale(0.100000,-0.100000)"
fill="white" stroke="none">
<path d="M2330 5110 c-494 -48 -950 -230 -1350 -538 -195 -150 -448 -432 -594
-662 -63 -99 -186 -351 -230 -471 -49 -134 -102 -340 -128 -499 -31 -195 -31
-565 0 -760 45 -276 116 -498 237 -745 132 -269 269 -460 489 -681 221 -220
412 -357 681 -489 247 -121 469 -192 745 -237 195 -31 565 -31 760 0 276 45
498 116 745 237 269 132 460 269 681 489 220 221 357 412 489 681 88 179 132
296 180 476 63 240 78 371 78 649 0 278 -15 409 -78 649 -48 180 -92 297 -180
476 -132 269 -269 460 -489 681 -221 220 -412 357 -681 489 -246 121 -474 193
-740 235 -147 23 -475 34 -615 20z m1422 -1389 c59 -41 83 -85 83 -157 0 -55
-4 -67 -31 -101 -17 -21 -46 -47 -65 -58 -33 -20 -52 -20 -1179 -20 -1127 0
-1146 0 -1179 20 -80 47 -118 137 -92 217 15 44 75 106 115 117 18 6 521 9
1172 8 l1140 -2 36 -24z m-7 -1004 c125 -71 125 -243 0 -314 l-40 -23 -1145 0
-1145 0 -40 23 c-22 12 -50 37 -62 56 -60 89 -32 205 62 258 l40 23 1145 0
1145 0 40 -23z m-6 -1002 c19 -11 48 -37 65 -58 27 -34 31 -46 31 -101 0 -72
-24 -116 -83 -157 l-36 -24 -1156 0 -1156 0 -36 24 c-99 68 -116 186 -40 271
66 74 -12 70 1247 67 1110 -2 1131 -2 1164 -22z"/>
</g>
</svg>
