<svg version="1.0" xmlns="http://www.w3.org/2000/svg"
 width="512" height="512">
  <g transform="translate(0.000000,512.000000) scale(0.100000,-0.100000)" fill="#F4F1EC" stroke="none">
    <path d="M2315 5109 c-641 -66 -1211 -353 -1649 -829 -618 -671 -825 -1644
    -536 -2520 131 -397 338 -729 641 -1027 402 -395 890 -632 1474 -715 119 -17
    512 -16 635 1 586 81 1091 331 1497 742 404 409 641 894 725 1484 17 118 17
    512 0 630 -48 337 -146 641 -295 910 -117 213 -253 395 -430 574 -398 403
    -893 653 -1462 737 -123 18 -478 26 -600 13z m1440 -1543 c44 -19 65 -61 65
    -131 0 -64 -423 -2072 -445 -2116 -32 -62 -101 -85 -171 -59 -24 9 -255 176
    -593 427 l-84 62 -181 -173 c-133 -126 -191 -176 -215 -181 -18 -4 -35 -5 -37
    -2 -3 3 4 148 16 324 l21 318 71 65 c38 36 309 281 601 545 293 265 532 487
    532 495 0 11 -11 15 -35 14 -29 -1 -177 -90 -777 -467 -407 -257 -746 -467
    -752 -467 -27 0 -658 203 -688 221 -64 40 -50 99 33 146 22 12 181 77 354 143
    173 67 500 193 725 280 226 87 628 242 895 345 585 226 579 224 608 225 12 0
    38 -6 57 -14z"/>
  </g>
</svg>
