<svg version="1.0" xmlns="http://www.w3.org/2000/svg"
 width="512" height="512">
  <g transform="translate(0.000000,512.000000) scale(0.100000,-0.100000)" fill="#F4F1EC" stroke="none">
    <path d="M2375 5054 c-16 -2 -73 -9 -125 -15 -435 -49 -869 -231 -1240 -518
    -110 -85 -327 -302 -412 -412 -278 -358 -445 -750 -515 -1206 -23 -150 -23
    -536 0 -686 60 -388 190 -729 396 -1037 411 -616 1023 -995 1776 -1102 135
    -19 503 -16 650 5 373 55 731 192 1035 395 617 413 996 1025 1102 1777 17 117
    17 493 0 610 -91 647 -391 1200 -867 1602 -357 302 -802 502 -1265 568 -108
    16 -467 29 -535 19z m385 -904 c696 -72 1237 -556 1386 -1240 15 -68 19 -128
    19 -300 0 -189 -3 -228 -23 -319 -70 -310 -203 -553 -426 -777 -226 -225 -488
    -367 -810 -436 -86 -19 -133 -22 -311 -22 -180 0 -224 3 -312 22 -122 27 -269
    75 -377 125 l-79 37 -433 -137 c-239 -75 -436 -134 -439 -131 -3 2 59 188 137
    411 l141 407 -61 128 c-115 241 -157 423 -156 682 0 205 16 308 74 481 136
    408 425 734 815 920 266 127 566 179 855 149z"/>
    <path d="M2380 3906 c-438 -79 -788 -334 -982 -714 -205 -403 -182 -891 61
    -1269 28 -44 51 -85 51 -91 0 -6 -34 -115 -76 -242 -41 -128 -74 -234 -72
    -236 2 -2 117 32 254 74 l251 78 99 -53 c113 -60 268 -114 399 -139 128 -25
    358 -23 491 4 533 107 949 514 1053 1030 29 142 35 253 21 372 -67 583 -476
    1039 -1050 1172 -112 25 -391 33 -500 14z m-231 -621 c5 -6 46 -95 91 -200 63
    -148 79 -194 72 -210 -5 -11 -41 -57 -81 -103 -39 -45 -71 -86 -71 -90 0 -16
    71 -126 123 -189 28 -36 84 -92 122 -125 113 -96 334 -217 373 -203 9 3 48 46
    85 96 106 138 85 135 294 39 222 -101 223 -102 223 -143 -1 -130 -89 -266
    -210 -321 -154 -70 -337 -42 -605 90 -154 77 -280 169 -420 309 -147 146 -240
    268 -305 400 -65 130 -83 203 -78 319 2 77 8 101 34 156 32 67 100 152 138
    172 11 6 34 14 50 17 38 8 153 -2 165 -14z"/>
  </g>
</svg>
